<svg width="90" height="18" viewBox="0 0 90 18" fill="none" xmlns="http://www.w3.org/2000/svg">
<path d="M25.957 13.3535L27.9785 12.3379C28.2715 12.9694 28.6686 13.4414 29.1699 13.7539C29.6777 14.0664 30.2702 14.2227 30.9473 14.2227C31.7546 14.2227 32.3763 14.0469 32.8125 13.6953C33.2552 13.3438 33.4766 12.8522 33.4766 12.2207C33.4766 11.6087 33.2585 11.1204 32.8223 10.7559C32.3861 10.3913 31.7155 10.1016 30.8105 9.88672C29.3392 9.54167 28.2747 9.05339 27.6172 8.42188C26.9596 7.78385 26.6309 6.92773 26.6309 5.85352C26.6309 4.57096 27.0768 3.57161 27.9688 2.85547C28.8672 2.13281 29.974 1.77148 31.2891 1.77148C32.2786 1.77148 33.151 1.98958 33.9062 2.42578C34.6615 2.85547 35.2669 3.49674 35.7227 4.34961L33.7598 5.30664C33.4603 4.75326 33.1055 4.35612 32.6953 4.11523C32.2852 3.87435 31.7871 3.75391 31.2012 3.75391C30.472 3.75391 29.9056 3.91992 29.502 4.25195C29.0983 4.57747 28.8965 5.01367 28.8965 5.56055C28.8965 6.10742 29.082 6.53711 29.4531 6.84961C29.8242 7.16211 30.4915 7.42904 31.4551 7.65039C32.9395 7.98242 34.0234 8.49349 34.707 9.18359C35.3971 9.8737 35.7422 10.8014 35.7422 11.9668C35.7422 13.2103 35.3288 14.2324 34.502 15.0332C33.6751 15.834 32.4967 16.2344 30.9668 16.2344C29.7884 16.2344 28.7598 15.9837 27.8809 15.4824C27.0085 14.9811 26.3672 14.2715 25.957 13.3535Z" fill="#737373"/>
<path d="M46.4355 14.1348C45.9928 14.8379 45.4199 15.3652 44.7168 15.7168C44.0202 16.0618 43.2487 16.2344 42.4023 16.2344C40.7878 16.2344 39.528 15.7721 38.623 14.8477C37.7246 13.9167 37.2754 12.6927 37.2754 11.1758C37.2754 9.5026 37.7539 8.18424 38.7109 7.2207C39.6745 6.25065 40.9245 5.76562 42.4609 5.76562C43.3268 5.76562 44.1081 5.94792 44.8047 6.3125C45.5013 6.67708 46.0286 7.2207 46.3867 7.94336L44.6094 8.8418C44.2969 8.39258 43.9616 8.07682 43.6035 7.89453C43.252 7.70573 42.8418 7.61133 42.373 7.61133C41.5658 7.61133 40.8984 7.91081 40.3711 8.50977C39.8503 9.10872 39.5898 9.94531 39.5898 11.0195C39.5898 12.0807 39.847 12.901 40.3613 13.4805C40.8822 14.0599 41.5788 14.3496 42.4512 14.3496C42.8939 14.3496 43.3008 14.2585 43.6719 14.0762C44.0495 13.8874 44.388 13.5716 44.6875 13.1289L46.4355 14.1348Z" fill="#737373"/>
<path d="M57.2168 16H54.9414V14.6426H54.9023C54.5768 15.1309 54.1374 15.5182 53.584 15.8047C53.0371 16.0911 52.4609 16.2344 51.8555 16.2344C50.6836 16.2344 49.7982 15.8861 49.1992 15.1895C48.6003 14.4928 48.3008 13.4805 48.3008 12.1523V6H50.5566V11.8496C50.5566 12.6895 50.7194 13.3242 51.0449 13.7539C51.3704 14.1771 51.8783 14.3887 52.5684 14.3887C53.265 14.3887 53.8346 14.1348 54.2773 13.627C54.7201 13.1191 54.9414 12.4779 54.9414 11.7031V6H57.2168V16Z" fill="#737373"/>
<path d="M68.8867 16H66.6211V10.1504C66.6211 9.32357 66.4551 8.69531 66.123 8.26562C65.7975 7.82943 65.306 7.61133 64.6484 7.61133C63.9388 7.61133 63.3594 7.86523 62.9102 8.37305C62.4674 8.88086 62.2461 9.52214 62.2461 10.2969V16H59.9707V6H62.2461V7.35742H62.2852C62.6367 6.84961 63.0924 6.45898 63.6523 6.18555C64.2188 5.9056 64.8307 5.76562 65.4883 5.76562C66.5951 5.76562 67.4382 6.11719 68.0176 6.82031C68.597 7.52344 68.8867 8.5293 68.8867 9.83789V16Z" fill="#0078D4"/>
<path d="M80.0098 11.5566H73.1055C73.125 12.5202 73.3854 13.2461 73.8867 13.7344C74.3945 14.2161 75.0163 14.457 75.752 14.457C76.2728 14.457 76.735 14.3366 77.1387 14.0957C77.5423 13.8483 77.8841 13.4837 78.1641 13.002L79.9121 13.9492C79.4564 14.6784 78.8737 15.2415 78.1641 15.6387C77.4609 16.0358 76.6309 16.2344 75.6738 16.2344C74.2025 16.2344 73.0241 15.7917 72.1387 14.9062C71.2533 14.0208 70.8105 12.748 70.8105 11.0879C70.8105 9.50586 71.263 8.22331 72.168 7.24023C73.0794 6.25716 74.2188 5.76562 75.5859 5.76562C76.9922 5.76562 78.0794 6.18555 78.8477 7.02539C79.6224 7.86523 80.0098 9.08268 80.0098 10.6777V11.5566ZM77.8125 9.93555C77.8125 9.1543 77.6172 8.54883 77.2266 8.11914C76.8359 7.68945 76.3021 7.47461 75.625 7.47461C74.9154 7.47461 74.3392 7.71224 73.8965 8.1875C73.4538 8.65625 73.1868 9.23893 73.0957 9.93555H77.8125Z" fill="#737373"/>
<path d="M89.7168 16H87.5195V14.7598H87.4805C87.1289 15.2415 86.6992 15.6094 86.1914 15.8633C85.6836 16.1107 85.1172 16.2344 84.4922 16.2344C83.5677 16.2344 82.8092 15.9707 82.2168 15.4434C81.6309 14.916 81.3379 14.2259 81.3379 13.373C81.3379 12.4551 81.6309 11.7194 82.2168 11.166C82.8092 10.6061 83.6556 10.2643 84.7559 10.1406L87.5293 9.82812V9.34961C87.5293 8.73112 87.3568 8.26888 87.0117 7.96289C86.6667 7.65039 86.2142 7.49414 85.6543 7.49414C85.1009 7.49414 84.6354 7.61784 84.2578 7.86523C83.8802 8.11263 83.5677 8.46745 83.3203 8.92969L81.6211 8.06055C81.9596 7.38997 82.4935 6.83984 83.2227 6.41016C83.9518 5.98047 84.8177 5.76562 85.8203 5.76562C87.0833 5.76562 88.0469 6.09766 88.7109 6.76172C89.3815 7.41927 89.7168 8.3763 89.7168 9.63281V16ZM87.5293 11.9375V11.3906L85.1172 11.6543C84.5638 11.7129 84.1602 11.8659 83.9062 12.1133C83.6523 12.3607 83.5254 12.6927 83.5254 13.1094C83.5254 13.5326 83.6686 13.8776 83.9551 14.1445C84.248 14.4049 84.6257 14.5352 85.0879 14.5352C85.8171 14.5352 86.4062 14.291 86.8555 13.8027C87.3047 13.3079 87.5293 12.6862 87.5293 11.9375Z" fill="#737373"/>
<g clip-path="url(#clip0_1_9)">
<path d="M5 15V10L6 10.5L10 13L12 12.5L16 10L16.5 14.5L13 16.5H9L5 15Z" fill="white"/>
<path d="M10.5 1L2 6.5L10.5 12L19 6.5L10.5 1Z" fill="#F6B40E"/>
<path d="M8.40878 0.612728C9.6832 -0.204242 11.3168 -0.204242 12.5912 0.612728L20.6548 5.7817C20.8689 5.91899 20.9989 6.15547 21 6.40986C21.0011 6.66425 20.8732 6.90185 20.6602 7.04099L17.5 9.10569V14.6631C17.5 14.8253 17.4474 14.9832 17.35 15.1131L17.3489 15.1145L17.3477 15.1162L17.3446 15.1202L17.3364 15.1309C17.3321 15.1364 17.3269 15.1429 17.3209 15.1504C17.3179 15.1542 17.3146 15.1583 17.3111 15.1626C17.2904 15.1882 17.2619 15.2226 17.2253 15.2644C17.1522 15.3479 17.0469 15.4614 16.9081 15.5947C16.6305 15.8612 16.2176 16.2079 15.6587 16.5518C14.5359 17.2428 12.8387 17.9131 10.5 17.9131C8.16127 17.9131 6.46408 17.2428 5.3413 16.5518C4.7824 16.2079 4.36951 15.8612 4.09193 15.5947C3.95308 15.4614 3.84778 15.3479 3.77468 15.2644C3.73204 15.2156 3.6901 15.1662 3.65107 15.1145C3.64956 15.1125 3.65 15.1131 3.65 15.1131C3.55263 14.9832 3.5 14.8253 3.5 14.6631V9.10569L1.5 7.79899V13.1631C1.5 13.5773 1.16421 13.9131 0.75 13.9131C0.33579 13.9131 0 13.5773 0 13.1631V6.41306C0 6.14258 0.14318 5.90555 0.35788 5.77361L8.40878 0.612728ZM12.6194 12.2943C11.3317 13.1356 9.6683 13.1356 8.38058 12.2943L5 10.0856V14.3818C5.0368 14.4203 5.08034 14.4643 5.13073 14.5127C5.34143 14.7149 5.67072 14.9933 6.12745 15.2743C7.03592 15.8334 8.46373 16.4131 10.5 16.4131C12.5363 16.4131 13.9641 15.8334 14.8726 15.2743C15.3293 14.9933 15.6586 14.7149 15.8693 14.5127C15.9197 14.4643 15.9632 14.4203 16 14.3818V10.0856L12.6194 12.2943ZM11.7817 1.87555C11.0006 1.37482 9.9994 1.37482 9.2183 1.87555L2.13041 6.41909L9.201 11.0385C9.9902 11.5542 11.0098 11.5542 11.799 11.0385L18.8696 6.41909L11.7817 1.87555Z" fill="#74ACDF"/>
</g>
<defs>
<clipPath id="clip0_1_9">
<rect width="21" height="18" fill="white"/>
</clipPath>
</defs>
</svg>
